<svg width="46" height="48" viewBox="0 0 46 48" fill="none" xmlns="http://www.w3.org/2000/svg">
<path fill-rule="evenodd" clip-rule="evenodd" d="M0.363647 24.5143L0.365928 24.2775L0.370632 24.0405L0.37777 23.8036L0.387331 23.5666L0.399338 23.3297L0.413768 23.0927L0.430645 22.8559L0.449944 22.6191L0.471689 22.3823L0.495869 22.1456L0.522484 21.9093L0.551521 21.6729L0.583005 21.4368L0.616923 21.2009L0.653264 20.9652L0.692039 20.7299L0.733249 20.4947L0.77687 20.26L0.822926 20.0256L0.871404 19.7914L0.922305 19.5577L0.975605 19.3244L1.03134 19.0916L1.08946 18.8591L1.15001 18.6272L1.21294 18.3957L1.27828 18.1648L1.34601 17.9344L1.41613 17.7047L1.48862 17.4755L1.5635 17.247L1.64076 17.019L1.72037 16.7917L1.80235 16.5652L1.88668 16.3393L1.97336 16.1142L2.06238 15.8899L2.15374 15.6663L2.24742 15.4436L2.34342 15.2217L2.44173 15.0006L2.54235 14.7804L2.64527 14.5612L2.75047 14.3428L2.85796 14.1253L2.96771 13.9089L3.07973 13.6935L3.194 13.479L3.3105 13.2657L3.42924 13.0533L3.55021 12.842L3.67338 12.6319L3.79876 12.4228L3.92632 12.2149L4.05607 12.0082L4.18799 11.8027L4.32207 11.5985L4.45829 11.3953L4.59665 11.1936L4.73713 10.993L4.87972 10.7938L5.0244 10.5959L5.17117 10.3993L5.32 10.2042L5.47091 10.0104L5.62385 9.81788L5.77882 9.6269L5.93581 9.43736L6.0948 9.24929L6.25579 9.06269L6.41875 8.8776L6.58366 8.69406L6.75053 8.51204L6.91932 8.3316L7.09003 8.15275L7.26263 7.9755L7.43711 7.79987L7.61347 7.62588L7.79167 7.45356L7.97171 7.28292L8.15357 7.11399L8.33722 6.94676L8.52266 6.78128L8.70987 6.61755L8.89883 6.45559L9.08952 6.29543L9.28192 6.13707L9.47602 5.98054L9.6718 5.82585L9.86925 5.67302L10.0683 5.52208L10.2691 5.37302L10.4714 5.22588L10.6752 5.08067L10.8806 4.9374L11.0877 4.79609L11.2962 4.65674L11.5062 4.5194L11.7177 4.38406L11.9308 4.25075L12.1452 4.11947L12.3611 3.99024L12.5783 3.86309L12.797 3.73802L13.017 3.61504L13.2384 3.49417L13.461 3.37542L13.685 3.25883L13.9102 3.14437L14.1368 3.03208L14.3645 2.92197L14.5936 2.81405L14.8237 2.70834L15.0551 2.60484L15.2875 2.50357L15.5212 2.40455L15.7559 2.30778L15.9917 2.21327L16.2285 2.12103L16.4664 2.03109L16.7052 1.94344L16.9452 1.85811L17.186 1.77509L17.4278 1.69439L17.6704 1.61605L17.914 1.54005L18.1585 1.46641L18.4039 1.39515L18.6499 1.32626L18.8969 1.25975L19.1446 1.19563L19.3931 1.13393L19.6422 1.07465L19.8921 1.01777L20.1427 0.963334L20.3938 0.911322L20.6457 0.861756L20.8981 0.814649L21.1511 0.769988L21.4047 0.727797L21.6588 0.688076L21.9134 0.650825L22.1684 0.616068L22.4239 0.583793L22.6799 0.554011L22.9363 0.526711L23.193 0.50194L23.45 0.479663L23.7074 0.459891L23.965 0.442648L25.3506 0.363525L25.4297 7.03923L25.4749 7.03871L25.6663 7.03843L25.8576 7.04004L26.0489 7.04353L26.2405 7.04891L26.432 7.05616L26.6235 7.06529L26.8151 7.07631L27.0067 7.08923L27.1981 7.10401L27.3897 7.1207L27.581 7.13928L27.7724 7.15975L27.9635 7.1821L28.1546 7.20634L28.3454 7.23247L28.5362 7.26047L28.7267 7.29039L28.9171 7.32218L29.1071 7.35585L29.297 7.39141L29.4866 7.42885L29.6758 7.46818L29.8649 7.50938L30.0535 7.55245L30.2418 7.5974L30.4298 7.64422L30.6174 7.69293L30.8045 7.74348L30.9912 7.79591L31.1776 7.85019L31.3633 7.90633L31.5486 7.96432L31.7335 8.02417L31.9178 8.08586L32.1016 8.14938L32.2848 8.21475L32.4675 8.28193L32.6495 8.35096L32.8309 8.4218L33.0117 8.49447L33.1918 8.56895L33.3712 8.64522L33.5501 8.72331L33.7282 8.80318L33.9054 8.88485L34.082 8.96828L34.2578 9.05351L34.4329 9.1405L34.6071 9.22925L34.7804 9.31976L34.953 9.41201L35.1247 9.50601L35.2955 9.60174L35.4654 9.69919L35.6344 9.79836L35.8025 9.89926L35.9696 10.0018L36.1358 10.1061L36.3009 10.2121L36.465 10.3196L36.6281 10.429L36.7902 10.5399L36.9512 10.6524L37.1112 10.7667L37.2701 10.8825L37.4277 11L37.5844 11.1191L37.7398 11.2398L37.8942 11.3621L38.0472 11.4859L38.1992 11.6112L38.3499 11.7383L38.4994 11.8668L38.6477 11.9968L38.7947 12.1283L38.9403 12.2614L39.0847 12.396L39.2279 12.532L39.3697 12.6694L39.5101 12.8084L39.6492 12.9488L39.7869 13.0908L39.9232 13.234L40.0581 13.3787L40.1916 13.5247L40.3236 13.6722L40.4542 13.821L40.5834 13.9712L40.711 14.1227L40.8373 14.2755L40.9619 14.4298L41.0851 14.5852L41.2067 14.7419L41.3268 14.8999L41.4453 15.0592L41.5622 15.2197L41.6775 15.3815L41.7912 15.5445L41.9034 15.7085L42.0139 15.8738L42.1227 16.0403L42.2299 16.208L42.3353 16.3768L42.4392 16.5466L42.5413 16.7176L42.6418 16.8897L42.7405 17.0629L42.8375 17.2371L42.9327 17.4123L43.0262 17.5885L43.1179 17.7658L43.2079 17.944L43.296 18.1232L43.3824 18.3034L43.467 18.4845L43.5498 18.6665L43.6307 18.8494L43.7098 19.0332L43.787 19.2179L43.8624 19.4033L43.9359 19.5897L44.0075 19.7768L44.0772 19.9648L44.1451 20.1534L44.211 20.343L44.2751 20.5331L44.3372 20.7241L44.3974 20.9157L44.4556 21.108L44.5119 21.301L44.5663 21.4946L44.6186 21.6888L44.6691 21.8837L44.7174 22.0791L44.764 22.2751L44.8084 22.4717L44.8508 22.6688L44.8914 22.8663L44.9298 23.0645L44.9662 23.263L45.0007 23.462L45.0331 23.6614L45.0634 23.8613L45.0918 24.0616L45.118 24.2621L45.1423 24.4632L45.1645 24.6644L45.1846 24.866L45.2027 25.0679L45.2187 25.2701L45.2327 25.4726L45.2445 25.6752L45.2543 25.878L45.2621 26.0812L45.2677 26.2843L45.2713 26.4877L45.2727 26.6912L45.2722 26.8949L45.2694 27.0986L45.2646 27.3025L45.2577 27.5062L45.2488 27.7101L45.2378 27.914L45.2245 28.1178L45.2093 28.3217L45.1919 28.5254L45.1724 28.7292L45.1509 28.9328L45.1271 29.1362L45.1014 29.3396L45.0736 29.5427L45.0436 29.7458L45.0116 29.9486L44.9774 30.1511L44.9411 30.3535L44.9028 30.5556L44.8624 30.7574L44.8199 30.9589L44.7752 31.1601L44.7285 31.361L44.6798 31.5614L44.6289 31.7615L44.5759 31.9611L44.521 32.1603L44.4639 32.3591L44.4048 32.5574L44.3436 32.7554L44.2803 32.9526L44.215 33.1495L44.1477 33.3457L44.0782 33.5414L44.0068 33.7365L43.9333 33.9309L43.8578 34.1248L43.7802 34.318L43.7007 34.5105L43.6191 34.7023L43.5356 34.8935L43.45 35.0838L43.3625 35.2735L43.2729 35.4623L43.1814 35.6504L43.0878 35.8377L42.9924 36.0241L42.8949 36.2097L42.7957 36.3943L42.6943 36.5782L42.5911 36.761L42.4859 36.943L42.3788 37.1241L42.2699 37.3041L42.159 37.4833L42.0461 37.6612L41.9315 37.8383L41.8151 38.0142L41.6967 38.1892L41.5765 38.363L41.4544 38.5358L41.3306 38.7074L41.2048 38.8779L41.0773 39.0473L40.948 39.2154L40.8169 39.3823L40.6841 39.5481L40.5495 39.7126L40.4131 39.8758L40.275 40.0379L40.1351 40.1986L39.9936 40.358L39.8503 40.5162L39.7054 40.673L39.5589 40.8284L39.4106 40.9825L39.2607 41.1351L39.1091 41.2863L38.9559 41.4362L38.8012 41.5846L38.6449 41.7317L38.487 41.8771L38.3274 42.0212L38.1664 42.1636L38.0039 42.3046L37.8397 42.4442L37.6741 42.5821L37.507 42.7184L37.3385 42.8532L37.1684 42.9864L36.9969 43.1179L36.824 43.2478L36.6497 43.3762L36.4741 43.5028L36.297 43.6278L36.1185 43.7511L35.9387 43.8728L35.7577 43.9926L35.5752 44.1108L35.3916 44.2273L35.2066 44.3419L35.0204 44.4549L34.8328 44.566L34.6441 44.6754L34.4543 44.783L34.263 44.8886L34.0709 44.9926L33.8774 45.0946L33.6829 45.1949L33.4872 45.2933L33.2904 45.3897L33.0926 45.4843L32.8937 45.5771L32.6937 45.6678L32.4928 45.7567L32.2908 45.8436L32.0879 45.9285L31.884 46.0116L31.6792 46.0927L31.4735 46.1717L31.2668 46.2489L31.0593 46.324L30.8508 46.3971L30.6416 46.4681L30.4316 46.5373L30.2206 46.6043L30.009 46.6693L29.7966 46.7323L29.5835 46.7931L29.3696 46.852L29.1551 46.9088L28.9398 46.9634L28.724 47.016L28.5075 47.0666L28.2903 47.115L28.0726 47.1613L27.8543 47.2055L27.6354 47.2476L27.4161 47.2875L27.1962 47.3252L26.9758 47.3609L26.7551 47.3945L26.5337 47.4258L26.3121 47.455L26.0901 47.482L25.8675 47.5068L25.6448 47.5295L25.4216 47.5501L25.1983 47.5684L24.9745 47.5846L24.7506 47.5986L24.5263 47.6104L24.3019 47.6199L24.0773 47.6273L23.8524 47.6325L23.6275 47.6354L23.4024 47.6363L23.1772 47.6348L22.952 47.6312L22.7266 47.6254L22.5012 47.6172L22.2759 47.6069L22.0505 47.5945L21.8252 47.5798L21.5999 47.5629L21.3747 47.5437L21.1496 47.5223L20.9246 47.4988L20.6998 47.473L20.4751 47.445L20.2506 47.4148L20.0264 47.3823L19.8023 47.3477L19.5786 47.3108L19.3551 47.2718L19.1319 47.2304L18.9091 47.1869L18.6866 47.1413L18.4645 47.0933L18.2427 47.0432L18.0214 46.991L17.8005 46.9365L17.5801 46.8798L17.3602 46.8209L17.1409 46.7599L16.922 46.6967L16.7036 46.6314L16.4859 46.5638L16.2688 46.494L16.0523 46.4222L15.8364 46.3481L15.6212 46.2718L15.4067 46.1936L15.1929 46.1131L14.9798 46.0305L14.7675 45.9458L14.556 45.8589L14.3453 45.7699L14.1354 45.6789L13.9263 45.5858L13.7181 45.4905L13.5108 45.3932L13.3044 45.2938L13.099 45.1923L12.8945 45.0887L12.691 44.9832L12.4885 44.8755L12.2869 44.766L12.0865 44.6543L11.8871 44.5406L11.6888 44.4249L11.4915 44.3072L11.2955 44.1876L11.1005 44.0659L10.9066 43.9424L10.7141 43.8167L10.5227 43.6893L10.3325 43.5598L10.1437 43.4285L9.95599 43.2953L9.76963 43.1601L9.58458 43.0231L9.40086 42.8842L9.21849 42.7434L9.03749 42.6009L8.85786 42.4563L8.67965 42.3102L8.50287 42.1621L8.32752 42.0122L8.15364 41.8606L7.98125 41.7071L7.81036 41.5519L7.64099 41.3951L7.47315 41.2364L7.30688 41.0761L7.14218 40.914L6.97906 40.7503L6.81757 40.5849L6.6577 40.4178L6.49948 40.2492L6.34293 40.0789L6.18806 39.9069L6.03489 39.7334L5.88342 39.5584L5.7337 39.3817L5.58572 39.2036L5.43952 39.0239L5.29509 38.8427L5.15247 38.66L5.01166 38.4759L4.87267 38.2902L4.73554 38.1031L4.60027 37.9146L4.46686 37.7247L4.33536 37.5335L4.20576 37.3408L4.07809 37.1468L3.95236 36.9516L3.82856 36.7549L3.70674 36.5569L3.5869 36.3578L3.46905 36.1573L3.35322 35.9556L3.2394 35.7527L3.12761 35.5486L3.01788 35.3432L2.91019 35.1368L2.8046 34.9292L2.70107 34.7205L2.59966 34.5107L2.50035 34.2998L2.40316 34.0879L2.3081 33.8748L2.21519 33.6609L2.12444 33.4458L2.03586 33.2299L1.94945 33.0129L1.86523 32.795L1.78322 32.5762L1.70342 32.3565L1.62583 32.136L1.55046 31.9146L1.47735 31.6923L1.40648 31.4693L1.33787 31.2455L1.27153 31.021L1.20747 30.7956L1.14568 30.5695L1.08619 30.3428L1.029 30.1154L0.974116 29.8874L0.92156 29.6587L0.871321 29.4293L0.82341 29.1994L0.777839 28.969L0.734608 28.738L0.693729 28.5065L0.655214 28.2745L0.61905 28.0421L0.585262 27.8091L0.553849 27.5757L0.524824 27.342L0.498174 27.1078L0.473911 26.8734L0.452047 26.6387L0.432583 26.4035L0.415517 26.1681L0.400863 25.9324L0.388619 25.6965L0.378787 25.4604L0.371365 25.2241L0.366366 24.9877L0.363801 24.7511L0.363647 24.5143ZM23.265 7.17906L23.2112 2.62882L23.16 2.63376L22.925 2.65877L22.6907 2.68605L22.4564 2.71564L22.2232 2.74743L21.9901 2.78154L21.7573 2.81793L21.5252 2.85655L21.2933 2.89747L21.0626 2.94053L20.8316 2.98599L20.6022 3.0335L20.3724 3.08341L20.1439 3.13543L19.9155 3.18977L19.6883 3.24619L19.4616 3.30488L19.2355 3.36576L19.0101 3.42883L18.7858 3.49402L18.5619 3.56145L18.3391 3.63098L18.1169 3.70272L17.8959 3.77644L17.6753 3.85249L17.4558 3.93057L17.2374 4.01072L17.0196 4.09306L16.803 4.17741L16.5875 4.26379L16.3727 4.35239L16.1589 4.443L15.9462 4.53567L15.7346 4.6303L15.5241 4.72699L15.3148 4.82562L15.1062 4.92643L14.8992 5.02908L14.6932 5.13373L14.4884 5.24036L14.2848 5.34895L14.0825 5.45941L13.8812 5.5719L13.6811 5.68635L13.4828 5.80243L13.2851 5.92078L13.0892 6.0407L12.8947 6.16248L12.7011 6.28627L12.5091 6.41186L12.3184 6.53928L12.1296 6.66821L11.9414 6.79941L11.7552 6.93202L11.5704 7.06647L11.3868 7.20276L11.2049 7.34066L11.0247 7.48022L10.8455 7.62174L10.6684 7.76461L10.4925 7.90936L10.3183 8.05568L10.1457 8.20371L9.97478 8.35315L9.80517 8.50448L9.63749 8.65716L9.47125 8.8116L9.30693 8.96734L9.14411 9.12477L8.9831 9.28362L8.82373 9.44404L8.66591 9.60611L8.51016 9.7693L8.35615 9.93389L8.20352 10.1004L8.05301 10.268L7.90433 10.4368L7.75719 10.6073L7.61218 10.7789L7.46877 10.952L7.3273 11.1263L7.18768 11.3021L7.04988 11.479L6.91411 11.6571L6.78012 11.8365L6.64797 12.0173L6.51794 12.199L6.38966 12.3821L6.26341 12.5663L6.13912 12.7516L6.0167 12.9381L5.89634 13.1256L5.77796 13.3141L5.66156 13.5038L5.54724 13.6944L5.43481 13.8862L5.32439 14.0791L5.21615 14.2727L5.10984 14.4673L5.00557 14.6631L4.90341 14.8596L4.80327 15.0571L4.70527 15.2553L4.60932 15.4544L4.51548 15.6544L4.42369 15.8553L4.33407 16.0568L4.24649 16.2592L4.16104 16.4624L4.07778 16.6661L3.9966 16.8707L3.91755 17.076L3.84068 17.2818L3.76593 17.4884L3.69339 17.6955L3.62294 17.9034L3.55468 18.1117L3.4886 18.3207L3.42471 18.53L3.36295 18.7401L3.30342 18.9505L3.24607 19.1614L3.19089 19.3727L3.13791 19.5846L3.08714 19.7968L3.03856 20.0094L2.99219 20.2223L2.94802 20.4356L2.90607 20.6492L2.86631 20.8631L2.82878 21.0773L2.79345 21.2918L2.76035 21.5064L2.72946 21.7212L2.70079 21.9363L2.67433 22.1515L2.65009 22.3669L2.62807 22.5824L2.60828 22.798L2.59069 23.0135L2.57533 23.2293L2.56218 23.4451L2.55125 23.6608L2.54254 23.8766L2.53604 24.0923L2.53176 24.308L2.52968 24.5236L2.52983 24.7391L2.53217 24.9544L2.53672 25.1698L2.54346 25.3849L2.55241 25.5997L2.56357 25.8145L2.5769 26.0288L2.59243 26.2431L2.61014 26.457L2.63004 26.6707L2.65211 26.8841L2.67636 27.0971L2.70277 27.3098L2.73135 27.5221L2.76209 27.734L2.79499 27.9455L2.83002 28.1565L2.86721 28.3671L2.90653 28.5772L2.94798 28.7867L2.99155 28.9959L3.03724 29.2044L3.08504 29.4124L3.13495 29.6198L3.18695 29.8266L3.24106 30.0328L3.29722 30.2382L3.35548 30.4432L3.4158 30.6474L3.47818 30.8509L3.54261 31.0537L3.60906 31.2557L3.67756 31.4569L3.74809 31.6574L3.82063 31.8571L3.89516 32.0559L3.97173 32.2539L4.05024 32.4511L4.13073 32.6474L4.21321 32.8427L4.29763 33.0371L4.384 33.2307L4.47231 33.4234L4.56254 33.6149L4.65468 33.8056L4.74873 33.9951L4.84465 34.1837L4.94247 34.3713L5.04215 34.5578L5.14369 34.7432L5.24706 34.9275L5.35227 35.1106L5.45929 35.2928L5.56814 35.4736L5.67872 35.6533L5.79116 35.8319L5.90531 36.0092L6.02125 36.1854L6.13892 36.3603L6.2583 36.5339L6.37939 36.7063L6.50221 36.8775L6.62668 37.0473L6.75286 37.2158L6.88064 37.3829L7.01013 37.5487L7.14117 37.7131L7.27387 37.8762L7.4082 38.038L7.54402 38.1983L7.68147 38.3571L7.82044 38.5145L7.96099 38.6705L8.10302 38.825L8.24653 38.978L8.39156 39.1295L8.53805 39.2796L8.68604 39.4282L8.83542 39.5751L8.98626 39.7206L9.13846 39.8644L9.29206 40.0068L9.44708 40.1475L9.60342 40.2866L9.76102 40.4241L9.92007 40.56L10.0804 40.6943L10.2419 40.8269L10.4048 40.9579L10.5689 41.0871L10.7342 41.2147L10.9007 41.3407L11.0686 41.4649L11.2374 41.5874L11.4075 41.7081L11.5786 41.8271L11.7511 41.9445L11.9244 42.06L12.0991 42.1738L12.2746 42.2858L12.4513 42.396L12.629 42.5044L12.8076 42.611L12.9874 42.7159L13.1679 42.8188L13.3496 42.92L13.5321 43.0192L13.7156 43.1167L13.8998 43.2124L14.085 43.3062L14.2712 43.398L14.4581 43.4881L14.6458 43.5762L14.8343 43.6625L15.0235 43.7468L15.2137 43.8293L15.4044 43.9097L15.596 43.9885L15.7882 44.0652L15.981 44.1398L16.1746 44.2128L16.3687 44.2837L16.5634 44.3526L16.7589 44.4196L16.9548 44.4847L17.1514 44.5478L17.3483 44.6089L17.546 44.6681L17.7439 44.7253L17.9425 44.7805L18.1415 44.8338L18.3409 44.8851L18.5407 44.9344L18.7408 44.9817L18.9415 45.027L19.1424 45.0703L19.3435 45.1117L19.5451 45.151L19.747 45.1884L19.9491 45.2237L20.1514 45.257L20.354 45.2883L20.5568 45.3176L20.7598 45.3449L20.9629 45.3704L21.1661 45.3936L21.3695 45.4149L21.573 45.4343L21.7767 45.4515L21.9803 45.4669L22.1839 45.4801L22.3877 45.4915L22.5913 45.5007L22.7949 45.508L22.9985 45.5134L23.2022 45.5165L23.4056 45.5178L23.609 45.5171L23.8122 45.5144L24.0153 45.5098L24.2182 45.5031L24.421 45.4944L24.6235 45.4838L24.8258 45.4712L25.0278 45.4566L25.2297 45.4401L25.4312 45.4215L25.6323 45.401L25.8333 45.3785L26.0337 45.3542L26.2339 45.3278L26.4336 45.2994L26.633 45.2692L26.8319 45.237L27.0304 45.2029L27.2285 45.1668L27.426 45.1289L27.623 45.0891L27.8195 45.0472L28.0155 45.0036L28.2108 44.958L28.4057 44.9105L28.5999 44.8612L28.7935 44.8099L28.9863 44.7569L29.1787 44.7019L29.3703 44.6451L29.5613 44.5865L29.7515 44.5261L29.941 44.4637L30.1298 44.3996L30.3175 44.3337L30.5049 44.2658L30.6912 44.1963L30.8768 44.125L31.0615 44.0519L31.2453 43.9771L31.4282 43.9004L31.6103 43.8221L31.7915 43.7419L31.9716 43.6601L32.151 43.5766L32.3294 43.4913L32.5066 43.4044L32.6831 43.3156L32.8583 43.2254L33.0327 43.1334L33.206 43.0397L33.3781 42.9444L33.5492 42.8475L33.7192 42.7491L33.8883 42.6489L34.0559 42.5472L34.2227 42.4438L34.3881 42.339L34.5524 42.2325L34.7156 42.1245L34.8776 42.0148L35.0381 41.904L35.1975 41.7913L35.3558 41.6773L35.5127 41.5618L35.6685 41.4447L35.8227 41.3264L35.976 41.2063L36.1276 41.0851L36.2779 40.9624L36.4272 40.8382L36.5749 40.7126L36.7211 40.5858L36.8661 40.4574L37.0096 40.3279L37.1518 40.1969L37.2925 40.0647L37.4316 39.9313L37.5695 39.7963L37.7059 39.6602L37.8408 39.5228L37.9742 39.3842L38.106 39.2445L38.2362 39.1036L38.3653 38.9611L38.4924 38.8179L38.6183 38.6732L38.7424 38.5276L38.865 38.3807L38.9861 38.2329L39.1054 38.0839L39.2234 37.9336L39.3395 37.7826L39.4543 37.6303L39.5672 37.4771L39.6786 37.3228L39.7885 37.1674L39.8963 37.0114L40.0028 36.8541L40.1074 36.696L40.2104 36.5369L40.3119 36.3767L40.4115 36.216L40.5093 36.0543L40.6056 35.8913L40.6999 35.7281L40.7927 35.5637L40.8838 35.3985L40.9729 35.2328L41.0605 35.066L41.1463 34.8984L41.2301 34.7307L41.3124 34.5616L41.3928 34.3919L41.4714 34.2217L41.5482 34.0508L41.6233 33.8792L41.6964 33.7071L41.7679 33.5341L41.8376 33.3606L41.9053 33.187L41.9712 33.0121L42.0353 32.8372L42.0977 32.6614L42.1582 32.4853L42.2168 32.3087L42.2734 32.132L42.3285 31.954L42.3814 31.7763L42.4326 31.5979L42.482 31.4193L42.5295 31.2401L42.575 31.0608L42.6189 30.8809L42.6607 30.7007L42.7008 30.5203L42.7389 30.3395L42.7751 30.1588L42.8095 29.9773L42.842 29.7962L42.8726 29.6145L42.9013 29.4326L42.9281 29.2507L42.9532 29.0685L42.9762 28.8865L42.9975 28.7036L43.0168 28.5215L43.0343 28.3388L43.0497 28.1565L43.0635 27.9735L43.0753 27.7913L43.0852 27.6085L43.0932 27.4255L43.0994 27.243L43.1038 27.0609L43.1061 26.8781L43.1067 26.6956L43.1054 26.5134L43.1022 26.3313L43.0971 26.1491L43.0902 25.9677L43.0814 25.7856L43.0708 25.6043L43.0583 25.423L43.044 25.2423L43.0278 25.0613L43.0098 24.8811L42.9899 24.7007L42.9682 24.521L42.9447 24.3413L42.9194 24.1623L42.8921 23.9831L42.8631 23.8048L42.8324 23.627L42.7998 23.4492L42.7653 23.2719L42.7291 23.0953L42.6911 22.9186L42.6515 22.7433L42.6098 22.5676L42.5666 22.3932L42.5214 22.2185L42.4746 22.0452L42.426 21.872L42.3756 21.6992L42.3236 21.5275L42.2699 21.3564L42.2142 21.1854L42.1571 21.0157L42.098 20.8461L42.0375 20.6776L41.9751 20.5094L41.9112 20.3424L41.8454 20.1756L41.778 20.0098L41.7091 19.8451L41.6385 19.6811L41.566 19.5173L41.4923 19.355L41.4166 19.1928L41.3395 19.0322L41.2608 18.8722L41.1803 18.7128L41.0986 18.5547L41.015 18.3972L40.9298 18.2405L40.8435 18.0854L40.7552 17.9305L40.6657 17.777L40.5743 17.6242L40.4819 17.4729L40.3875 17.322L40.292 17.1725L40.1947 17.0237L40.0961 16.8762L39.9963 16.7301L39.8946 16.5845L39.7917 16.4402L39.6875 16.2969L39.5817 16.155L39.4746 16.0139L39.3661 15.8742L39.2563 15.7354L39.1451 15.598L39.0326 15.4617L38.9187 15.3265L38.8035 15.1926L38.6871 15.0599L38.5695 14.9285L38.4505 14.7983L38.3299 14.6691L38.2088 14.5417L38.0856 14.415L37.9619 14.2901L37.8367 14.1661L37.7105 14.0437L37.5827 13.9222L37.4543 13.8026L37.3243 13.6839L37.1932 13.5667L37.0615 13.451L36.9284 13.3366L36.7938 13.2232L36.6585 13.1116L36.5222 13.0013L36.3848 12.8925L36.2463 12.7849L36.107 12.6791L35.9663 12.5742L35.8251 12.4713L35.6826 12.3696L35.5392 12.2693L35.3951 12.1706L35.2495 12.0731L35.1039 11.9776L34.9567 11.8832L34.8089 11.7904L34.66 11.6991L34.5105 11.6092L34.3602 11.5211L34.2093 11.4346L34.0569 11.3491L33.9046 11.2657L33.751 11.1835L33.5967 11.1031L33.4419 11.0242L33.2862 10.9468L33.1298 10.871L32.9729 10.7969L32.8151 10.7242L32.657 10.6533L32.498 10.5838L32.3334 10.5138L32.1786 10.4499L32.0175 10.3851L31.8566 10.3224L31.6945 10.2608L31.5323 10.2012L31.3695 10.1431L31.2063 10.0867L31.0424 10.0317L30.8783 9.97868L30.7136 9.92715L30.5485 9.87728L30.3833 9.82918L30.2173 9.78257L30.0508 9.73757L29.8845 9.69439L29.7179 9.65287L29.5502 9.61286L29.3831 9.5747L29.2151 9.53806L29.0472 9.5032L28.8787 9.46992L28.7104 9.43839L28.5416 9.40849L28.373 9.38033L28.2035 9.35373L28.0345 9.32891L27.8652 9.30572L27.6956 9.2842L27.526 9.26437L27.3564 9.24624L27.1867 9.22976L27.0168 9.21497L26.8469 9.20184L26.6768 9.19037L26.5072 9.18061L26.3375 9.17252L26.1672 9.16607L25.9979 9.16132L25.8282 9.15823L25.6586 9.15681L25.4888 9.15704L25.4547 9.15743L25.5083 13.6746L25.6046 13.6741L25.7285 13.6748L25.8525 13.6767L25.9766 13.6799L26.1008 13.6843L26.225 13.6899L26.3492 13.6968L26.4736 13.7048L26.5979 13.7142L26.7222 13.7247L26.8465 13.7365L26.9708 13.7495L27.0951 13.7638L27.2193 13.7793L27.3434 13.796L27.4675 13.814L27.5914 13.8332L27.7153 13.8536L27.8392 13.8754L27.9628 13.8983L28.0863 13.9225L28.2097 13.9479L28.3329 13.9745L28.4559 14.0024L28.5787 14.0316L28.7014 14.062L28.8237 14.0935L28.9459 14.1264L29.0679 14.1604L29.1896 14.1958L29.3111 14.2323L29.4322 14.27L29.553 14.309L29.6736 14.3492L29.7939 14.3906L29.9137 14.4333L30.0333 14.4772L30.1524 14.5222L30.2713 14.5685L30.3898 14.616L30.5078 14.6647L30.6254 14.7147L30.7426 14.7658L30.8594 14.8181L30.9757 14.8715L31.0915 14.9262L31.207 14.9821L31.3219 15.0392L31.4363 15.0975L31.5502 15.1569L31.6635 15.2174L31.7764 15.2793L31.8887 15.3421L32.0003 15.4062L32.1115 15.4714L32.2222 15.5378L32.3321 15.6053L32.4414 15.674L32.5501 15.7438L32.6583 15.8147L32.7657 15.8867L32.8725 15.9599L32.9786 16.0342L33.0841 16.1095L33.1888 16.1859L33.2928 16.2636L33.3962 16.3422L33.4986 16.422L33.6005 16.5028L33.7016 16.5846L33.8019 16.6675L33.9014 16.7516L34.0002 16.8365L34.0982 16.9226L34.1953 17.0097L34.2916 17.0978L34.387 17.1869L34.4817 17.2771L34.5754 17.3682L34.6683 17.4604L34.7604 17.5535L34.8515 17.6477L34.9418 17.7428L35.031 17.8388L35.1194 17.9359L35.2068 18.0338L35.2934 18.1326L35.3789 18.2325L35.4635 18.3332L35.5472 18.4348L35.6298 18.5374L35.7115 18.6408L35.7921 18.7452L35.8717 18.8504L35.9503 18.9565L36.0279 19.0633L36.1044 19.1711L36.1798 19.2797L36.2543 19.3891L36.3276 19.4994L36.3998 19.6104L36.4709 19.7223L36.541 19.8349L36.61 19.9483L36.6779 20.0624L36.7445 20.1774L36.8101 20.293L36.8745 20.4094L36.9377 20.5265L36.9999 20.6444L37.0609 20.7629L37.1206 20.8821L37.1792 21.0021L37.2366 21.1226L37.2928 21.2438L37.3477 21.3657L37.4015 21.4882L37.4541 21.6113L37.5054 21.7351L37.5555 21.8594L37.6043 21.9843L37.6518 22.1097L37.6981 22.2358L37.7431 22.3624L37.787 22.4895L37.8295 22.6172L37.8707 22.7454L37.9106 22.874L37.9493 23.0031L37.9866 23.1328L38.0226 23.2629L38.0573 23.3935L38.0907 23.5244L38.1227 23.6559L38.1535 23.7876L38.1829 23.9199L38.2109 24.0525L38.2376 24.1854L38.2629 24.3187L38.2869 24.4525L38.3096 24.5865L38.3309 24.7208L38.3507 24.8555L38.3693 24.9904L38.3864 25.1256L38.4022 25.2611L38.4165 25.3969L38.4295 25.5328L38.4412 25.6691L38.4514 25.8055L38.4603 25.9421L38.4676 26.0788L38.4736 26.2158L38.4782 26.353L38.4814 26.4902L38.4832 26.6277L38.4836 26.7652L38.4825 26.9028L38.48 27.0405L38.4761 27.1783L38.4708 27.3162L38.4641 27.454L38.4559 27.5919L38.4463 27.7299L38.4353 27.8679L38.4228 28.0058L38.409 28.1437L38.3936 28.2815L38.377 28.4194L38.3588 28.5571L38.3391 28.6948L38.3181 28.8323L38.2956 28.9698L38.2718 29.1071L38.2464 29.2443L38.2197 29.3814L38.1914 29.5183L38.1617 29.655L38.1308 29.7915L38.0983 29.9278L38.0644 30.0638L38.029 30.1997L37.9923 30.3353L37.9541 30.4706L37.9145 30.6055L37.8735 30.7403L37.8311 30.8748L37.7871 31.0089L37.7418 31.1426L37.6952 31.276L37.6472 31.4091L37.5977 31.5417L37.5467 31.6739L37.4945 31.8058L37.4408 31.9372L37.3858 32.0683L37.3293 32.1988L37.2715 32.3289L37.2123 32.4585L37.1516 32.5876L37.0897 32.7162L37.0264 32.8443L36.9616 32.9718L36.8955 33.0988L36.8282 33.2252L36.7594 33.351L36.6893 33.4763L36.6179 33.601L36.5451 33.725L36.471 33.8485L36.3956 33.9711L36.3189 34.0933L36.2408 34.2147L36.1615 34.3355L36.0808 34.4554L35.9989 34.5748L35.9157 34.6935L35.8312 34.8113L35.7454 34.9284L35.6584 35.0448L35.5701 35.1604L35.4806 35.2751L35.3898 35.3891L35.2977 35.5023L35.2045 35.6146L35.1101 35.7261L35.0143 35.8367L34.9174 35.9465L34.8193 36.0554L34.7201 36.1634L34.6196 36.2705L34.5181 36.3767L34.4153 36.4819L34.3114 36.5863L34.2062 36.6895L34.1001 36.792L33.9926 36.8934L33.8843 36.9937L33.7747 37.0933L33.664 37.1916L33.5523 37.289L33.4394 37.3854L33.3256 37.4807L33.2106 37.575L33.0947 37.6681L32.9776 37.7602L32.8595 37.8512L32.7405 37.9411L32.6204 38.0298L32.4993 38.1175L32.3773 38.2042L32.2543 38.2895L32.1303 38.3738L32.0053 38.4568L31.8794 38.5387L31.7526 38.6195L31.625 38.699L31.4963 38.7772L31.3669 38.8544L31.2364 38.9303L31.1052 39.0048L30.9731 39.0782L30.8401 39.1504L30.7064 39.2214L30.5718 39.291L30.4363 39.3593L30.3002 39.4263L30.1632 39.4921L30.0254 39.5565L29.8869 39.6196L29.7477 39.6814L29.6077 39.7419L29.467 39.801L29.3256 39.8588L29.1836 39.9153L29.0408 39.9704L28.8975 40.0242L28.7534 40.0765L28.6088 40.1275L28.4634 40.177L28.3176 40.2252L28.171 40.2719L28.024 40.3173L27.8764 40.3612L27.7282 40.4036L27.5795 40.4448L27.4302 40.4844L27.2805 40.5225L27.1303 40.5593L26.9796 40.5946L26.8283 40.6284L26.6768 40.6608L26.5247 40.6917L26.3723 40.7211L26.2195 40.7491L26.0662 40.7756L25.9126 40.8005L25.7587 40.8239L25.6043 40.8459L25.4496 40.8663L25.2947 40.8854L25.1395 40.9027L24.984 40.9187L24.8282 40.9331L24.6722 40.946L24.516 40.9573L24.3595 40.9671L24.2028 40.9754L24.046 40.9821L23.8889 40.9873L23.7317 40.991L23.5744 40.9931L23.4169 40.9937L23.2594 40.9928L23.1018 40.9902L22.9441 40.9862L22.7863 40.9805L22.6285 40.9733L22.4706 40.9645L22.3128 40.9543L22.155 40.9424L21.9972 40.929L21.8394 40.914L21.6816 40.8974L21.524 40.8793L21.3665 40.8597L21.2089 40.8384L21.0516 40.8156L20.8944 40.7913L20.7374 40.7654L20.5804 40.7379L20.4237 40.7089L20.2672 40.6783L20.111 40.646L19.9549 40.6124L19.7991 40.5771L19.6436 40.5403L19.4883 40.5019L19.3334 40.4619L19.1787 40.4204L19.0243 40.3774L18.8704 40.3329L18.7168 40.2868L18.5635 40.2391L18.4107 40.1899L18.2584 40.1392L18.1063 40.0869L17.9548 40.0331L17.8037 39.9778L17.6531 39.921L17.503 39.8626L17.3534 39.8028L17.2042 39.7414L17.0557 39.6785L16.9077 39.6142L16.7603 39.5482L16.6134 39.4809L16.4672 39.4121L16.3216 39.3418L16.1766 39.2699L16.0322 39.1967L15.8886 39.122L15.7456 39.0457L15.6033 38.9681L15.4617 38.889L15.3209 38.8084L15.1807 38.7265L15.0414 38.6431L14.9027 38.5582L14.7649 38.4721L14.628 38.3844L14.4918 38.2954L14.3565 38.2049L14.222 38.113L14.0883 38.0199L13.9556 37.9254L13.8237 37.8294L13.6928 37.7321L13.5627 37.6335L13.4336 37.5335L13.3055 37.4322L13.1783 37.3295L13.0521 37.2256L12.9268 37.1203L12.8026 37.0138L12.6795 36.9059L12.5573 36.7969L12.4362 36.6865L12.3162 36.5749L12.1972 36.462L12.0792 36.3479L11.9625 36.2325L11.8469 36.116L11.7324 35.9982L11.6189 35.8793L11.5067 35.7591L11.3957 35.6378L11.2858 35.5153L11.177 35.3917L11.0696 35.2669L10.9633 35.141L10.8583 35.014L10.7544 34.8857L10.652 34.7566L10.5507 34.6262L10.4507 34.4948L10.352 34.3623L10.2545 34.2289L10.1584 34.0943L10.0638 33.9587L9.97029 33.8221L9.87823 33.6845L9.78754 33.546L9.6982 33.4065L9.61024 33.2659L9.52369 33.1245L9.43852 32.9821L9.35478 32.8388L9.27245 32.6945L9.19156 32.5495L9.11212 32.4034L9.03413 32.2567L8.95759 32.1089L8.88254 31.9604L8.80897 31.811L8.73689 31.6608L8.66631 31.5099L8.59725 31.358L8.52969 31.2056L8.46368 31.0523L8.3992 30.8982L8.33625 30.7435L8.27488 30.5881L8.21506 30.4318L8.15681 30.275L8.10013 30.1176L8.04504 29.9593L7.99155 29.8006L7.93966 29.6412L7.88937 29.4812L7.84071 29.3207L7.79366 29.1595L7.74824 28.9978L7.70445 28.8355L7.66232 28.6727L7.62183 28.5095L7.58299 28.3457L7.54582 28.1814L7.5103 28.0167L7.47647 27.8516L7.44431 27.686L7.41383 27.5199L7.38504 27.3535L7.35796 27.1868L7.33256 27.0197L7.30886 26.8522L7.28688 26.6844L7.26661 26.5162L7.24806 26.3478L7.23122 26.1792L7.2161 26.0102L7.20272 25.8409L7.19107 25.6716L7.18114 25.5019L7.17297 25.332L7.16652 25.1621L7.16183 24.9919L7.15888 24.8216L7.15767 24.6511L7.15823 24.4805L7.16052 24.3099L7.16459 24.1392L7.17039 23.9685L7.17797 23.7976L7.1873 23.6268L7.19839 23.4559L7.21124 23.2851L7.22585 23.1142L7.24223 22.9436L7.26038 22.7728L7.28029 22.6023L7.30196 22.4317L7.3254 22.2613L7.35059 22.091L7.37756 21.921L7.40628 21.751L7.43677 21.5813L7.46902 21.4117L7.50304 21.2424L7.5388 21.0734L7.57633 20.9045L7.61562 20.7359L7.65665 20.5677L7.69943 20.3997L7.74397 20.2321L7.79025 20.0648L7.83828 19.8979L7.88806 19.7314L7.93956 19.5652L7.99282 19.3994L8.0478 19.2342L8.1045 19.0693L8.16294 18.905L8.22309 18.741L8.28496 18.5776L8.34854 18.4147L8.41384 18.2524L8.48084 18.0906L8.54954 17.9294L8.61993 17.7686L8.69202 17.6086L8.76577 17.4492L8.84122 17.2904L8.91833 17.1322L8.99713 16.9748L9.07757 16.818L9.15967 16.662L9.24342 16.5066L9.32882 16.352L9.41584 16.1981L9.50449 16.045L9.59477 15.8927L9.68667 15.7412L9.78016 15.5905L9.87528 15.4407L9.97195 15.2917L10.0703 15.1436L10.17 14.9963L10.2715 14.85L10.3745 14.7045L10.4789 14.56L10.5851 14.4165L10.6926 14.2739L10.8018 14.1323L10.9124 13.9917L11.0246 13.8521L11.1382 13.7136L11.2533 13.576L11.3699 13.4395L11.488 13.3041L11.6075 13.1698L11.7285 13.0366L11.8508 12.9045L11.9747 12.7736L12.0999 12.6437L12.2265 12.5151L12.3545 12.3876L12.4839 12.2612L12.6147 12.1362L12.7469 12.0122L12.8803 11.8897L13.0151 11.7682L13.1513 11.6481L13.2886 11.5292L13.4273 11.4116L13.5674 11.2953L13.7086 11.1804L13.8512 11.0667L13.995 10.9544L14.14 10.8434L14.2862 10.7339L14.4337 10.6256L14.5822 10.5188L14.732 10.4134L14.883 10.3094L15.0351 10.2068L15.1883 10.1057L15.3427 10.006L15.4981 9.90777L15.6547 9.81103L15.8124 9.71576L15.9711 9.622L16.1308 9.52974L16.2916 9.439L16.4534 9.34979L16.6161 9.26213L16.7799 9.17602L16.9447 9.09148L17.1104 9.0085L17.277 8.92711L17.4446 8.84731L17.6131 8.76912L17.7825 8.69254L17.9528 8.61758L18.1239 8.54426L18.2959 8.47258L18.4686 8.40255L18.6421 8.33418L18.8166 8.26748L18.9917 8.20246L19.1677 8.13912L19.3444 8.07748L19.5217 8.01754L19.6999 7.95931L19.8785 7.9028L20.0581 7.84802L20.2382 7.79496L20.419 7.74366L20.6003 7.6941L20.7823 7.64629L20.9649 7.60025L21.1481 7.55598L21.3317 7.51349L21.516 7.47276L21.7007 7.43384L21.8859 7.3967L22.0716 7.36138L22.2578 7.32785L22.4444 7.29613L22.6315 7.26623L22.8189 7.23815L23.0067 7.2119L23.1948 7.18747L23.265 7.17906ZM23.3445 13.8789L23.2903 9.31212L23.1361 9.33368L22.9703 9.35853L22.8044 9.38504L22.6395 9.41306L22.4744 9.4428L22.3101 9.47406L22.1462 9.50692L21.9829 9.54133L21.8199 9.57736L21.6573 9.61499L21.4952 9.65416L21.3337 9.69489L21.1724 9.73725L21.0175 9.77954L20.8524 9.82646L20.6929 9.87338L20.5342 9.92184L20.3763 9.97171L20.2188 10.0232L20.0618 10.0763L19.9056 10.1308L19.7502 10.1867L19.5954 10.2442L19.4413 10.3031L19.2877 10.3636L19.1354 10.4254L18.9831 10.4889L18.8319 10.5536L18.6815 10.6198L18.5321 10.6874L18.3831 10.7566L18.2349 10.8271L18.088 10.8988L17.9413 10.9722L17.7962 11.0468L17.6513 11.123L17.5078 11.2002L17.3646 11.2793L17.2228 11.3592L17.0819 11.4406L16.9417 11.5234L16.8026 11.6075L16.6642 11.693L16.5273 11.7795L16.3909 11.8676L16.2558 11.9568L16.1217 12.0472L15.9885 12.139L15.8561 12.2322L15.7253 12.3261L15.5952 12.4217L15.4661 12.5184L15.3382 12.6163L15.2115 12.7152L15.0857 12.8155L14.9612 12.9168L14.8379 13.0193L14.7154 13.1231L14.5945 13.2277L14.4744 13.3337L14.3555 13.4408L14.238 13.5488L14.1217 13.6579L14.0062 13.7683L13.8924 13.8794L13.7796 13.9917L13.668 14.1051L13.5577 14.2194L13.4486 14.3349L13.3408 14.4512L13.2344 14.5684L13.1291 14.6867L13.0249 14.8061L12.9226 14.926L12.8212 15.0471L12.7211 15.1692L12.6224 15.292L12.5251 15.4156L12.4289 15.5404L12.3343 15.6658L12.2409 15.7922L12.149 15.9193L12.0583 16.0473L11.9692 16.1759L11.8814 16.3054L11.7949 16.4358L11.7098 16.5668L11.6263 16.6985L11.5441 16.831L11.4633 16.9644L11.3839 17.0982L11.306 17.2328L11.2294 17.3681L11.1545 17.5038L11.0808 17.6404L11.0085 17.7777L10.938 17.9153L10.8687 18.0538L10.801 18.1928L10.7347 18.3321L10.6699 18.4723L10.6066 18.6128L10.5448 18.7539L10.4844 18.8955L10.4256 19.0376L10.3683 19.1801L10.3124 19.3232L10.2581 19.4667L10.2054 19.6105L10.1539 19.7549L10.1043 19.8995L10.056 20.0446L10.0093 20.1901L9.96403 20.3359L9.92042 20.482L9.87823 20.6284L9.83769 20.7751L9.79859 20.9222L9.76105 21.0695L9.72507 21.2171L9.69063 21.3649L9.65772 21.5129L9.62634 21.6612L9.59654 21.8096L9.56826 21.9582L9.54153 22.1071L9.51637 22.256L9.49272 22.4051L9.47066 22.5542L9.45011 22.7036L9.43112 22.8529L9.41368 23.0024L9.39779 23.1519L9.38344 23.3016L9.37064 23.4512L9.35939 23.6007L9.34967 23.7504L9.3415 23.9L9.33487 24.0495L9.32978 24.199L9.32623 24.3484L9.32422 24.4978L9.32373 24.6472L9.32479 24.7963L9.32737 24.9453L9.33149 25.0943L9.33711 25.2429L9.34427 25.3916L9.35295 25.54L9.36314 25.6881L9.37485 25.8362L9.38806 25.9839L9.40279 26.1314L9.41901 26.2787L9.43673 26.4257L9.45596 26.5725L9.47666 26.7188L9.49887 26.865L9.52254 27.0106L9.5477 27.1561L9.57434 27.3012L9.60243 27.4457L9.632 27.5901L9.66301 27.734L9.6955 27.8776L9.72939 28.0204L9.76478 28.1631L9.80158 28.3053L9.83982 28.447L9.87941 28.5881L9.92054 28.7288L9.96297 28.869L10.0069 29.0087L10.0522 29.1479L10.0989 29.2864L10.147 29.4243L10.1964 29.5618L10.2472 29.6986L10.2994 29.8349L10.353 29.9704L10.4078 30.1054L10.4641 30.2398L10.5216 30.3734L10.5806 30.5064L10.6407 30.6388L10.7023 30.7703L10.7652 30.9012L10.8292 31.0315L10.8947 31.1609L10.9614 31.2897L11.0293 31.4177L11.0986 31.5449L11.169 31.6713L11.2407 31.7969L11.3137 31.9217L11.3879 32.0457L11.4633 32.169L11.5399 32.2913L11.6176 32.4128L11.6967 32.5336L11.7767 32.6532L11.8581 32.7722L11.9405 32.8901L12.0242 33.0072L12.1089 33.1234L12.1948 33.2386L12.2818 33.3529L12.37 33.4664L12.4591 33.5788L12.5494 33.6902L12.6407 33.8007L12.7331 33.9103L12.8266 34.0186L12.9212 34.1263L13.0167 34.2327L13.1132 34.3382L13.2107 34.4426L13.3093 34.546L13.4088 34.6483L13.5094 34.7496L13.6108 34.8498L13.7132 34.949L13.8166 35.0471L13.9208 35.144L14.0261 35.2399L14.1321 35.3346L14.239 35.4282L14.3469 35.5207L14.4556 35.6121L14.5652 35.7024L14.6756 35.7914L14.7868 35.8793L14.8988 35.966L15.0117 36.0517L15.1254 36.1361L15.2397 36.2193L15.3548 36.3013L15.4707 36.3822L15.5874 36.4618L15.7048 36.5403L15.8229 36.6175L15.9417 36.6934L16.0612 36.7683L16.1812 36.8418L16.302 36.9141L16.4235 36.9851L16.5455 37.0548L16.6682 37.1234L16.7914 37.1906L16.9154 37.2567L17.0398 37.3215L17.1647 37.3848L17.2904 37.4471L17.4166 37.508L17.5432 37.5676L17.6702 37.6259L17.798 37.683L17.9259 37.7386L18.0545 37.793L18.1836 37.8462L18.3131 37.898L18.4429 37.9484L18.5732 37.9976L18.7039 38.0454L18.835 38.092L18.9664 38.1372L19.0983 38.1811L19.2304 38.2235L19.3629 38.2648L19.4958 38.3046L19.6288 38.3431L19.7621 38.3804L19.8958 38.4162L20.0297 38.4508L20.1638 38.4839L20.2982 38.5157L20.4328 38.5462L20.5677 38.5754L20.7026 38.6031L20.8377 38.6295L20.9731 38.6546L21.1085 38.6783L21.2441 38.7008L21.3798 38.7217L21.5156 38.7414L21.6515 38.7597L21.7874 38.7768L21.9234 38.7924L22.0595 38.8067L22.1956 38.8195L22.3318 38.8311L22.4679 38.8413L22.6041 38.8503L22.7401 38.8577L22.8761 38.864L23.0123 38.8688L23.1482 38.8724L23.284 38.8745L23.4197 38.8753L23.5554 38.8748L23.691 38.873L23.8264 38.8699L23.9616 38.8654L24.0968 38.8596L24.2317 38.8524L24.3664 38.844L24.5009 38.8342L24.6352 38.8231L24.7693 38.8107L24.9032 38.797L25.0368 38.782L25.1701 38.7656L25.3032 38.748L25.4359 38.7292L25.5684 38.709L25.7005 38.6875L25.8322 38.6648L25.9637 38.6407L26.0948 38.6154L26.2255 38.589L26.356 38.5611L26.4857 38.532L26.6153 38.5017L26.7443 38.4701L26.873 38.4373L27.0012 38.4033L27.129 38.368L27.2563 38.3314L27.3831 38.2937L27.5093 38.2549L27.6351 38.2147L27.7604 38.1733L27.8851 38.1308L28.0093 38.087L28.133 38.0421L28.256 37.996L28.3784 37.9488L28.5003 37.9003L28.6216 37.8507L28.7423 37.8L28.8623 37.7481L28.9817 37.6952L29.1004 37.641L29.2186 37.5857L29.336 37.5293L29.4526 37.472L29.5689 37.4133L29.6841 37.3537L29.7988 37.2929L29.9125 37.2312L30.0258 37.1683L30.1383 37.1044L30.2498 37.0394L30.3608 36.9733L30.4709 36.9063L30.5801 36.8382L30.6889 36.7691L30.7964 36.6991L30.9034 36.628L31.0096 36.5558L31.1148 36.4827L31.219 36.4089L31.3228 36.3337L31.4254 36.2579L31.5273 36.181L31.6283 36.1031L31.728 36.0245L31.8274 35.9448L31.9258 35.8642L32.0228 35.7829L32.1195 35.7002L32.2148 35.6172L32.3093 35.5333L32.4031 35.448L32.4955 35.3625L32.5872 35.2759L32.678 35.1884L32.7676 35.1002L32.8563 35.0111L32.9441 34.9213L33.0309 34.8307L33.1164 34.7393L33.2012 34.6471L33.285 34.5542L33.3675 34.4608L33.4492 34.3662L33.5297 34.2712L33.6091 34.1755L33.6877 34.0788L33.765 33.9819L33.8414 33.8839L33.9167 33.7855L33.9909 33.6862L34.0639 33.5864L34.1358 33.4862L34.2068 33.3849L34.2765 33.2834L34.3452 33.1812L34.4129 33.0783L34.4791 32.9751L34.5446 32.8711L34.6087 32.7665L34.6718 32.6616L34.7336 32.556L34.7946 32.4498L34.8541 32.3435L34.9127 32.2362L34.97 32.1288L35.026 32.0209L35.0812 31.9122L35.1349 31.8037L35.1877 31.694L35.239 31.5847L35.2896 31.4742L35.3385 31.3639L35.3866 31.2527L35.4334 31.1416L35.4789 31.0301L35.5233 30.918L35.5666 30.8056L35.6084 30.6932L35.6494 30.5801L35.6889 30.4669L35.7273 30.3535L35.7645 30.2397L35.8006 30.1255L35.8355 30.0112L35.869 29.8968L35.9014 29.7819L35.9325 29.6671L35.9625 29.5518L35.9912 29.4365L36.0188 29.3211L36.0451 29.2052L36.0702 29.0894L36.0942 28.9735L36.1167 28.8575L36.1382 28.7413L36.1584 28.6247L36.1775 28.5085L36.1953 28.392L36.2119 28.2754L36.2272 28.1589L36.2414 28.0423L36.2544 27.9253L36.2661 27.8091L36.2767 27.692L36.2861 27.5754L36.2941 27.459L36.3011 27.3422L36.3068 27.2257L36.3113 27.1093L36.3146 26.9925L36.3166 26.8764L36.3175 26.7599L36.3172 26.6437L36.3157 26.5276L36.313 26.4119L36.3091 26.2959L36.304 26.1802L36.2978 26.065L36.2903 25.9494L36.2817 25.8342L36.272 25.7196L36.261 25.6046L36.2489 25.4903L36.2355 25.3758L36.2211 25.2618L36.2055 25.148L36.1887 25.0343L36.1707 24.9211L36.1517 24.8083L36.1315 24.6956L36.1101 24.5834L36.0875 24.471L36.0639 24.3594L36.0392 24.2482L36.0133 24.1371L35.9863 24.0262L35.9582 23.9163L35.9289 23.8061L35.8987 23.6968L35.8672 23.5876L35.8347 23.4791L35.8012 23.3707L35.7664 23.2628L35.7307 23.1556L35.694 23.0488L35.6559 22.942L35.6172 22.8363L35.5771 22.7307L35.5361 22.6259L35.494 22.5213L35.4509 22.4172L35.4068 22.314L35.3615 22.211L35.3155 22.1087L35.2683 22.0071L35.2201 21.9057L35.1708 21.8049L35.1208 21.705L35.0695 21.6054L35.0175 21.5067L34.9645 21.4086L34.9103 21.3107L34.8555 21.2139L34.7995 21.1174L34.7426 21.0218L34.6847 20.9266L34.6262 20.8324L34.5664 20.7384L34.506 20.6455L34.4446 20.5532L34.3823 20.4616L34.3189 20.3705L34.2549 20.2804L34.1901 20.191L34.1242 20.102L34.0576 20.0141L33.99 19.9268L33.922 19.8404L33.8527 19.7544L33.7828 19.6695L33.712 19.5852L33.6405 19.5017L33.5683 19.4192L33.495 19.3371L33.4212 19.2562L33.3465 19.1758L33.2714 19.0966L33.195 19.0178L33.1183 18.9402L33.0406 18.863L32.9623 18.787L32.8835 18.7118L32.8039 18.6374L32.7234 18.5638L32.6423 18.4912L32.5606 18.4195L32.478 18.3483L32.3954 18.2786L32.3116 18.2092L32.2274 18.141L32.1425 18.0738L32.0569 18.0071L31.9709 17.9417L31.8845 17.8772L31.7971 17.8134L31.709 17.7504L31.621 17.6889L31.5317 17.6278L31.4426 17.5681L31.3527 17.509L31.2622 17.4508L31.1711 17.3936L31.0798 17.3376L30.9876 17.2823L30.8953 17.2282L30.8022 17.1748L30.7092 17.1227L30.6154 17.0714L30.5211 17.0209L30.4264 16.9715L30.3315 16.9233L30.236 16.8758L30.14 16.8293L30.044 16.7839L29.9476 16.7396L29.8503 16.696L29.7533 16.6537L29.6557 16.6123L29.5576 16.5718L29.4594 16.5325L29.3611 16.4942L29.2623 16.4568L29.1629 16.4203L29.0638 16.3851L28.964 16.3507L28.864 16.3174L28.7642 16.2851L28.6638 16.2539L28.5635 16.2236L28.4623 16.1943L28.3615 16.1662L28.2605 16.139L28.1592 16.1129L28.0578 16.0877L27.9559 16.0636L27.8543 16.0406L27.7526 16.0186L27.6505 15.9976L27.5482 15.9775L27.4464 15.9587L27.344 15.9407L27.2417 15.9238L27.139 15.9079L27.0369 15.8931L26.934 15.8791L26.8318 15.8665L26.7292 15.8547L26.6266 15.8439L26.5241 15.8342L26.4214 15.8255L26.3192 15.8178L26.2164 15.8112L26.1141 15.8055L26.0119 15.8009L25.9091 15.7972L25.8071 15.7946L25.705 15.7931L25.603 15.7925L25.5333 15.7928L25.5861 20.2546L25.6177 20.2547L25.6763 20.2555L25.735 20.257L25.7939 20.2588L25.8528 20.2616L25.9117 20.2648L25.9707 20.2685L26.0298 20.273L26.0889 20.2781L26.1481 20.2838L26.2073 20.29L26.2665 20.2969L26.3258 20.3045L26.385 20.3126L26.4444 20.3214L26.5037 20.3308L26.563 20.3409L26.6222 20.3515L26.6816 20.3628L26.7408 20.3747L26.8 20.3873L26.8592 20.4004L26.9184 20.4143L26.9774 20.4287L27.0365 20.4437L27.0954 20.4594L27.1543 20.4757L27.2131 20.4926L27.2719 20.5102L27.3305 20.5284L27.389 20.5473L27.4475 20.5668L27.5058 20.5869L27.564 20.6076L27.6221 20.629L27.68 20.651L27.7378 20.6735L27.7954 20.6968L27.8529 20.7207L27.9102 20.7452L27.9674 20.7703L28.0243 20.7961L28.0812 20.8225L28.1378 20.8495L28.1942 20.8771L28.2504 20.9053L28.3063 20.9343L28.3621 20.9637L28.4177 20.9938L28.473 21.0245L28.528 21.0559L28.5829 21.0878L28.6374 21.1203L28.6917 21.1535L28.7457 21.1873L28.7995 21.2217L28.8529 21.2565L28.9061 21.2921L28.959 21.3284L29.0116 21.3651L29.0639 21.4025L29.1159 21.4404L29.1675 21.479L29.2188 21.5181L29.2697 21.5578L29.3204 21.5981L29.3707 21.639L29.4205 21.6803L29.4702 21.7224L29.5193 21.765L29.5682 21.8081L29.6166 21.8518L29.6646 21.8961L29.7122 21.9409L29.7594 21.9863L29.8063 22.0323L29.8526 22.0787L29.8986 22.1258L29.9442 22.1733L29.9892 22.2214L30.0339 22.2701L30.0781 22.3192L30.122 22.3689L30.1652 22.4191L30.208 22.4698L30.2504 22.521L30.2923 22.5727L30.3336 22.625L30.3745 22.6777L30.4149 22.731L30.4549 22.7846L30.4942 22.8389L30.533 22.8935L30.5714 22.9487L30.6092 23.0043L30.6464 23.0605L30.6832 23.117L30.7195 23.174L30.7551 23.2315L30.7902 23.2894L30.8247 23.3478L30.8586 23.4065L30.892 23.4657L30.9248 23.5254L30.957 23.5854L30.9887 23.6459L31.0197 23.7068L31.0502 23.768L31.0799 23.8297L31.1091 23.8919L31.1377 23.9543L31.1657 24.0171L31.1932 24.0804L31.2199 24.144L31.246 24.2079L31.2714 24.2722L31.2962 24.3368L31.3204 24.4018L31.344 24.4672L31.3668 24.5329L31.389 24.5988L31.4105 24.6651L31.4313 24.7318L31.4515 24.7987L31.471 24.8659L31.4898 24.9335L31.508 25.0012L31.5255 25.0693L31.5421 25.1377L31.5582 25.2064L31.5736 25.2752L31.5882 25.3444L31.6022 25.4138L31.6153 25.4833L31.6278 25.5533L31.6396 25.6234L31.6508 25.6936L31.661 25.7641L31.6706 25.8348L31.6795 25.9057L31.6876 25.9768L31.6951 26.0481L31.7017 26.1195L31.7076 26.1911L31.7128 26.263L31.7172 26.3348L31.7208 26.4069L31.7237 26.4791L31.7259 26.5514L31.7272 26.6239L31.7279 26.6964L31.7277 26.769L31.7269 26.8418L31.7252 26.9147L31.7227 26.9876L31.7195 27.0607L31.7155 27.1337L31.7108 27.2069L31.7052 27.28L31.6989 27.3533L31.6918 27.4266L31.684 27.4998L31.6752 27.5731L31.6658 27.6465L31.6556 27.7199L31.6446 27.7932L31.6328 27.8664L31.6201 27.9397L31.6068 28.013L31.5926 28.0863L31.5777 28.1594L31.5619 28.2326L31.5453 28.3056L31.5281 28.3786L31.5099 28.4516L31.491 28.5245L31.4714 28.5972L31.4508 28.6698L31.4295 28.7423L31.4074 28.8147L31.3846 28.8871L31.361 28.9592L31.3365 29.0312L31.3113 29.1031L31.2852 29.1747L31.2584 29.2463L31.2309 29.3176L31.2025 29.3889L31.1733 29.4598L31.1434 29.5306L31.1127 29.6011L31.0811 29.6716L31.0489 29.7416L31.0158 29.8115L30.9818 29.8812L30.9473 29.9506L30.9119 30.0197L30.8757 30.0886L30.8387 30.1572L30.801 30.2255L30.7626 30.2935L30.7234 30.3613L30.6833 30.4287L30.6427 30.4958L30.6011 30.5626L30.5589 30.6291L30.5159 30.6951L30.472 30.761L30.4276 30.8263L30.3823 30.8914L30.3363 30.9561L30.2895 31.0204L30.2421 31.0843L30.1939 31.1478L30.145 31.2109L30.0954 31.2736L30.045 31.3359L29.994 31.3977L29.9422 31.4592L29.8897 31.5202L29.8364 31.5807L29.7825 31.6407L29.7279 31.7004L29.6726 31.7595L29.6167 31.8181L29.56 31.8764L29.5027 31.934L29.4447 31.9911L29.386 32.0478L29.3266 32.104L29.2666 32.1595L29.2059 32.2146L29.1446 32.2692L29.0827 32.3232L29.02 32.3766L28.9568 32.4294L28.8929 32.4818L28.8283 32.5336L28.7632 32.5846L28.6975 32.6352L28.6312 32.6852L28.5642 32.7346L28.4967 32.7833L28.4285 32.8314L28.3599 32.879L28.2905 32.9258L28.2206 32.9721L28.1502 33.0176L28.0792 33.0627L28.0076 33.107L27.9355 33.1506L27.8628 33.1935L27.7896 33.2358L27.7159 33.2774L27.6416 33.3183L27.5669 33.3586L27.4916 33.3981L27.4158 33.4369L27.3395 33.475L27.2628 33.5125L27.1855 33.5491L27.1077 33.585L27.0296 33.6202L26.9509 33.6546L26.8718 33.6884L26.7923 33.7214L26.7123 33.7536L26.6318 33.785L26.551 33.8157L26.4697 33.8456L26.388 33.8748L26.306 33.9032L26.2235 33.9307L26.1406 33.9575L26.0574 33.9834L25.9739 34.0086L25.8899 34.0331L25.8056 34.0566L25.721 34.0794L25.636 34.1012L25.5507 34.1224L25.465 34.1426L25.3791 34.1621L25.2928 34.1807L25.2063 34.1985L25.1194 34.2154L25.0323 34.2315L24.945 34.2467L24.8573 34.2611L24.7695 34.2746L24.6813 34.2873L24.5931 34.2991L24.5044 34.3101L24.4157 34.3201L24.3267 34.3292L24.2374 34.3376L24.1481 34.3449L24.0585 34.3516L23.9687 34.3571L23.8789 34.362L23.7888 34.3659L23.6987 34.3688L23.6082 34.3708L23.5178 34.372L23.4273 34.3724L23.3367 34.3718L23.2459 34.3702L23.155 34.3677L23.0641 34.3644L22.9731 34.3602L22.882 34.355L22.7909 34.349L22.6998 34.342L22.6087 34.3341L22.5174 34.3252L22.4263 34.3155L22.3351 34.3048L22.2439 34.2932L22.1527 34.2806L22.0616 34.2673L21.9705 34.2529L21.8795 34.2376L21.7885 34.2214L21.6976 34.2043L21.6067 34.1863L21.516 34.1673L21.4253 34.1475L21.3348 34.1265L21.2444 34.1048L21.154 34.0822L21.0638 34.0586L20.9739 34.034L20.8839 34.0086L20.7943 33.9822L20.7048 33.9549L20.6154 33.9267L20.5263 33.8976L20.4373 33.8676L20.3487 33.8366L20.2602 33.8047L20.1719 33.7719L20.0839 33.7382L19.9961 33.7036L19.9087 33.668L19.8215 33.6316L19.7346 33.5942L19.648 33.556L19.5616 33.5168L19.4757 33.4768L19.3899 33.4358L19.3045 33.3939L19.2196 33.3511L19.1349 33.3075L19.0507 33.263L18.9668 33.2176L18.8832 33.1713L18.8001 33.1241L18.7173 33.076L18.635 33.0271L18.5531 32.9773L18.4717 32.9266L18.3906 32.8751L18.31 32.8228L18.2299 32.7695L18.1502 32.7153L18.0712 32.6604L17.9925 32.6046L17.9142 32.548L17.8366 32.4904L17.7594 32.4322L17.6828 32.3731L17.6067 32.313L17.5312 32.2523L17.4562 32.1907L17.3817 32.1283L17.3079 32.0651L17.2346 32.001L17.1619 31.9363L17.0898 31.8707L17.0183 31.8043L16.9474 31.7371L16.8772 31.6692L16.8075 31.6005L16.7386 31.531L16.6703 31.4608L16.6025 31.3898L16.5355 31.3182L16.4692 31.2456L16.4036 31.1725L16.3386 31.0986L16.2745 31.0239L16.2109 30.9486L16.148 30.8725L16.086 30.7957L16.0246 30.7183L15.964 30.6402L15.9041 30.5613L15.845 30.4818L15.7867 30.4017L15.7292 30.3208L15.6723 30.2393L15.6163 30.1572L15.5611 30.0744L15.5068 29.991L15.4532 29.907L15.4004 29.8224L15.3485 29.7371L15.2973 29.6512L15.2471 29.5648L15.1977 29.4777L15.1491 29.3902L15.1014 29.302L15.0546 29.2132L15.0086 29.1239L14.9635 29.0341L14.9193 28.9438L14.876 28.8528L14.8336 28.7614L14.7921 28.6695L14.7516 28.5771L14.7119 28.4841L14.6731 28.3907L14.6353 28.2967L14.5984 28.2024L14.5625 28.1075L14.5276 28.0123L14.4936 27.9166L14.4605 27.8205L14.4283 27.7239L14.3973 27.6269L14.3671 27.5295L14.3379 27.4318L14.3097 27.3336L14.2825 27.235L14.2564 27.1361L14.2311 27.0368L14.207 26.9372L14.1838 26.8373L14.1616 26.737L14.1405 26.6364L14.1204 26.5355L14.1012 26.4343L14.0831 26.3328L14.0661 26.231L14.0502 26.1291L14.0352 26.0267L14.0212 25.9242L14.0084 25.8214L13.9966 25.7185L13.9859 25.6152L13.9762 25.5118L13.9676 25.4081L13.96 25.3044L13.9535 25.2004L13.9481 25.0963L13.9437 24.992L13.9404 24.8876L13.9382 24.783L13.9372 24.6784L13.9371 24.5735L13.9381 24.4686L13.9404 24.3637L13.9436 24.2586L13.9479 24.1534L13.9534 24.0482L13.9599 23.943L13.9674 23.8377L13.9762 23.7324L13.986 23.6271L13.9969 23.5218L14.0089 23.4165L14.022 23.3112L14.0362 23.2061L14.0516 23.1009L14.068 22.9957L14.0856 22.8906L14.1042 22.7856L14.1239 22.6806L14.1448 22.5758L14.1668 22.4711L14.1899 22.3665L14.214 22.262L14.2393 22.1578L14.2656 22.0536L14.2931 21.9496L14.3218 21.8458L14.3514 21.7421L14.3821 21.6386L14.414 21.5354L14.447 21.4324L14.4811 21.3296L14.5163 21.2271L14.5526 21.1248L14.5899 21.0228L14.6283 20.921L14.6679 20.8196L14.7086 20.7185L14.7503 20.6175L14.7931 20.5171L14.8369 20.4169L14.8819 20.317L14.9279 20.2175L14.9751 20.1183L15.0232 20.0196L15.0724 19.9212L15.1227 19.8232L15.1741 19.7257L15.2264 19.6286L15.28 19.5319L15.3344 19.4356L15.39 19.3397L15.4466 19.2445L15.5043 19.1496L15.5629 19.0552L15.6227 18.9613L15.6834 18.8678L15.7451 18.775L15.8079 18.6827L15.8717 18.5908L15.9365 18.4996L16.0023 18.4089L16.0691 18.3188L16.1368 18.2292L16.2056 18.1403L16.2753 18.0519L16.3461 17.9642L16.4178 17.877L16.4904 17.7906L16.564 17.7047L16.6386 17.6195L16.7141 17.535L16.7906 17.4511L16.868 17.368L16.9463 17.2855L17.0256 17.2037L17.1058 17.1227L17.1868 17.0423L17.2688 16.9626L17.3517 16.8838L17.4355 16.8057L17.5201 16.7283L17.6056 16.6517L17.6919 16.5758L17.7793 16.5009L17.8673 16.4266L17.9563 16.3532L18.046 16.2806L18.1367 16.2088L18.228 16.1378L18.3203 16.0678L18.4133 15.9985L18.5072 15.9301L18.6018 15.8626L18.6972 15.7959L18.7934 15.7301L18.8904 15.6652L18.988 15.6013L19.0865 15.5383L19.1858 15.4761L19.2856 15.4149L19.3863 15.3547L19.4876 15.2953L19.5897 15.2369L19.6924 15.1795L19.7958 15.123L19.8999 15.0676L20.0046 15.0131L20.1101 14.9596L20.2161 14.9071L20.3228 14.8556L20.4301 14.8051L20.538 14.7556L20.6465 14.7071L20.7556 14.6597L20.8654 14.6133L20.9756 14.5679L21.0864 14.5237L21.1978 14.4805L21.3097 14.4383L21.4221 14.3971L21.5351 14.3572L21.6487 14.3182L21.7626 14.2804L21.8771 14.2436L21.992 14.2079L22.1075 14.1734L22.2233 14.14L22.3396 14.1077L22.4563 14.0765L22.5734 14.0464L22.691 14.0174L22.809 13.9897L22.9274 13.9631L23.0461 13.9375L23.1652 13.9132L23.2845 13.89L23.3445 13.8789ZM24.8122 22.4593L23.45 22.7847L23.37 16.0372L23.3058 16.0516L23.2091 16.0744L23.1126 16.0981L23.0167 16.1227L22.921 16.1482L22.8259 16.1747L22.7307 16.2023L22.6366 16.2304L22.5421 16.2597L22.4489 16.2896L22.3554 16.3207L22.2625 16.3526L22.1701 16.3853L22.078 16.4189L21.9868 16.4533L21.8957 16.4887L21.805 16.5249L21.715 16.5619L21.625 16.5999L21.5363 16.6385L21.4475 16.6782L21.3596 16.7185L21.2718 16.7598L21.1848 16.8018L21.0981 16.8447L21.0123 16.8883L20.9268 16.9327L20.842 16.978L20.7577 17.024L20.6739 17.0708L20.5907 17.1184L20.5085 17.1666L20.4261 17.2159L20.3448 17.2657L20.2642 17.3162L20.184 17.3675L20.1044 17.4196L20.0256 17.4725L19.9473 17.526L19.8697 17.5801L19.7929 17.635L19.7164 17.6906L19.6408 17.747L19.5658 17.804L19.4915 17.8616L19.418 17.9198L19.3452 17.9788L19.2729 18.0384L19.2012 18.0988L19.1306 18.1596L19.0605 18.2212L18.9911 18.2832L18.9225 18.346L18.8545 18.4094L18.7874 18.4734L18.721 18.5378L18.6551 18.603L18.5902 18.6686L18.5261 18.7349L18.4627 18.8015L18.3999 18.8691L18.338 18.9369L18.2769 19.0053L18.2166 19.0743L18.1571 19.1436L18.0983 19.2136L18.0405 19.2838L17.9831 19.355L17.9269 19.4263L17.8712 19.4982L17.8165 19.5707L17.7626 19.6434L17.7094 19.7165L17.6572 19.7901L17.6057 19.8644L17.555 19.9388L17.5052 20.0139L17.4563 20.089L17.4082 20.1647L17.3608 20.2409L17.3145 20.3172L17.2687 20.3943L17.2241 20.4712L17.1801 20.5489L17.137 20.6267L17.0949 20.7049L17.0535 20.7833L17.0131 20.8622L16.9734 20.9415L16.9347 21.0206L16.8968 21.1005L16.8598 21.1804L16.8238 21.2607L16.7884 21.3412L16.7541 21.422L16.7206 21.5028L16.688 21.5841L16.6563 21.6656L16.6254 21.7472L16.5955 21.8289L16.5664 21.911L16.5381 21.9933L16.5108 22.0757L16.4844 22.1581L16.4588 22.241L16.4341 22.3238L16.4105 22.4067L16.3876 22.4899L16.3655 22.5732L16.3444 22.6565L16.3242 22.74L16.3048 22.8235L16.2864 22.9072L16.2689 22.991L16.2522 23.0746L16.2364 23.1584L16.2215 23.2425L16.2076 23.3263L16.1945 23.4102L16.1822 23.4943L16.1708 23.5781L16.1604 23.6622L16.1509 23.746L16.1421 23.8301L16.1343 23.9142L16.1273 23.998L16.1213 24.0819L16.1161 24.1658L16.1117 24.2495L16.1083 24.3332L16.1057 24.4167L16.104 24.5004L16.1031 24.5838L16.1032 24.6671L16.104 24.7503L16.1058 24.8335L16.1084 24.9165L16.1119 24.9994L16.1161 25.0821L16.1213 25.1646L16.1273 25.2469L16.1342 25.3292L16.1419 25.4112L16.1504 25.4932L16.1597 25.5747L16.1699 25.6563L16.1809 25.7374L16.1928 25.8186L16.2055 25.8993L16.2189 25.9799L16.2332 26.0604L16.2483 26.1404L16.2643 26.2203L16.281 26.2997L16.2986 26.3791L16.3169 26.4581L16.336 26.5369L16.3559 26.6151L16.3767 26.6935L16.3981 26.7711L16.4203 26.8488L16.4433 26.9258L16.4671 27.0028L16.4917 27.0792L16.517 27.1552L16.5431 27.2312L16.5699 27.3066L16.5975 27.3815L16.6257 27.4564L16.6548 27.5307L16.6846 27.6046L16.7151 27.6781L16.7461 27.7511L16.7782 27.8239L16.8108 27.8962L16.8441 27.9681L16.8781 28.0395L16.9128 28.1104L16.9483 28.1812L16.9843 28.2511L17.021 28.3207L17.0585 28.39L17.0967 28.4587L17.1354 28.527L17.1748 28.5948L17.2148 28.6619L17.2556 28.7288L17.2969 28.7951L17.3388 28.8608L17.3815 28.9262L17.4246 28.9909L17.4685 29.0554L17.5128 29.1188L17.5578 29.1822L17.6034 29.2448L17.6495 29.3068L17.6964 29.3685L17.7437 29.4295L17.7916 29.4899L17.84 29.5498L17.8891 29.6093L17.9385 29.6679L17.9887 29.7262L18.0393 29.7838L18.0903 29.8408L18.1422 29.8973L18.1942 29.9529L18.2469 30.0084L18.3001 30.063L18.3536 30.117L18.4079 30.1704L18.4625 30.2232L18.5176 30.2755L18.5731 30.327L18.6291 30.3779L18.6856 30.4283L18.7425 30.4779L18.7998 30.527L18.8574 30.5754L18.9156 30.6232L18.9742 30.6703L19.0333 30.7168L19.0925 30.7625L19.1523 30.8076L19.2125 30.8522L19.273 30.896L19.3338 30.9392L19.3951 30.9817L19.4566 31.0236L19.5186 31.0647L19.5807 31.1051L19.6432 31.1449L19.7063 31.1842L19.7695 31.2225L19.8329 31.2603L19.8969 31.2974L19.9608 31.3337L20.0251 31.3694L20.09 31.4045L20.1549 31.4387L20.22 31.4723L20.2853 31.5051L20.3512 31.5374L20.4169 31.5688L20.4832 31.5997L20.5495 31.6298L20.6159 31.6591L20.6828 31.6879L20.7498 31.7159L20.8168 31.7432L20.8842 31.7698L20.9516 31.7955L21.0195 31.8207L21.0871 31.8452L21.1553 31.8689L21.2232 31.8918L21.2914 31.9142L21.3598 31.9358L21.4284 31.9567L21.4969 31.9768L21.5656 31.9963L21.6345 32.015L21.7034 32.0331L21.7723 32.0503L21.8413 32.067L21.9103 32.0828L21.9795 32.0979L22.0487 32.1125L22.118 32.1262L22.1872 32.1393L22.2565 32.1516L22.3259 32.1633L22.3952 32.1742L22.4646 32.1845L22.5337 32.1939L22.6031 32.2027L22.6724 32.2108L22.7417 32.2183L22.811 32.2249L22.8802 32.2309L22.9494 32.2362L23.0184 32.2408L23.0875 32.2447L23.1564 32.2479L23.2252 32.2505L23.2942 32.2523L23.3628 32.2535L23.4313 32.2539L23.4999 32.2537L23.5682 32.2529L23.6366 32.2512L23.7048 32.249L23.7726 32.2461L23.8405 32.2425L23.9084 32.2382L23.9758 32.2333L24.0433 32.2277L24.1104 32.2214L24.1775 32.2146L24.2444 32.2069L24.311 32.1988L24.3776 32.1899L24.4438 32.1803L24.5097 32.1702L24.5758 32.1594L24.6414 32.1479L24.7067 32.1359L24.772 32.1231L24.837 32.1098L24.9015 32.0958L24.9658 32.0813L25.0301 32.066L25.094 32.0502L25.1576 32.0339L25.221 32.0169L25.2839 31.9993L25.3469 31.9809L25.4093 31.9622L25.4713 31.9428L25.5334 31.9227L25.5949 31.9021L25.6561 31.8811L25.717 31.8593L25.7775 31.837L25.8379 31.8141L25.8978 31.7907L25.9572 31.7667L26.0164 31.7422L26.0753 31.717L26.1339 31.6914L26.1918 31.6653L26.2497 31.6386L26.307 31.6114L26.3639 31.5836L26.4206 31.5554L26.4766 31.5267L26.5325 31.4973L26.588 31.4674L26.6429 31.4372L26.6974 31.4065L26.7516 31.3751L26.8054 31.3434L26.8586 31.3111L26.9114 31.2784L26.9639 31.2451L27.0159 31.2116L27.0675 31.1774L27.1186 31.1429L27.1693 31.1078L27.2195 31.0724L27.2692 31.0366L27.3184 31.0002L27.3673 30.9634L27.4156 30.9262L27.4635 30.8886L27.511 30.8505L27.5578 30.8122L27.6042 30.7735L27.6501 30.7342L27.6954 30.6947L27.7405 30.6547L27.7849 30.6143L27.8289 30.5736L27.8721 30.5326L27.9151 30.4911L27.9576 30.4493L27.9995 30.4072L28.0409 30.3648L28.0817 30.3219L28.122 30.2789L28.1619 30.2353L28.201 30.1917L28.2399 30.1475L28.2781 30.103L28.3157 30.0585L28.353 30.0133L28.3894 29.9682L28.4256 29.9226L28.4611 29.8768L28.496 29.8307L28.5305 29.7843L28.5643 29.7379L28.5976 29.6908L28.6305 29.6437L28.6626 29.5965L28.6943 29.5488L28.7255 29.501L28.7559 29.453L28.7859 29.4048L28.8153 29.3564L28.8442 29.3077L28.8725 29.2589L28.9002 29.2098L28.9274 29.1607L28.954 29.1111L28.98 29.0617L29.0054 29.012L29.0303 28.9621L29.0547 28.9121L29.0784 28.8618L29.1016 28.8115L29.1241 28.7611L29.1461 28.7106L29.1676 28.6598L29.1884 28.6091L29.2089 28.5579L29.2285 28.5072L29.2478 28.4557L29.2662 28.405L29.2843 28.3535L29.3018 28.3019L29.3186 28.2507L29.3349 28.1991L29.3506 28.1477L29.3658 28.0957L29.3802 28.0444L29.3944 27.9923L29.4078 27.941L29.4207 27.889L29.433 27.837L29.4447 27.7854L29.4558 27.7338L29.4664 27.6816L29.4764 27.63L29.4859 27.5778L29.4948 27.5263L29.5032 27.4746L29.511 27.4227L29.5182 27.3708L29.5248 27.319L29.5309 27.2675L29.5365 27.2161L29.5414 27.1642L29.5459 27.1128L29.5498 27.0613L29.5531 27.0099L29.556 26.9586L29.5582 26.9074L29.5599 26.8565L29.5611 26.8052L29.5618 26.754L29.5619 26.7033L29.5614 26.6526L29.5605 26.602L29.5589 26.5516L29.5569 26.5009L29.5543 26.4511L29.5513 26.4003L29.5477 26.3508L29.5436 26.301L29.539 26.2509L29.5338 26.2014L29.5282 26.1523L29.5219 26.1026L29.5153 26.0539L29.5081 26.0048L29.5006 25.9565L29.4923 25.9077L29.4837 25.8592L29.4746 25.8113L29.465 25.7634L29.4548 25.7154L29.4442 25.668L29.4332 25.6206L29.4216 25.5736L29.4097 25.5269L29.397 25.4799L29.3843 25.4338L29.3708 25.3872L29.357 25.3415L29.3427 25.2958L29.3279 25.2504L29.3126 25.2051L29.2969 25.16L29.281 25.1155L29.2644 25.0712L29.2474 25.0268L29.23 24.983L29.2122 24.9391L29.1941 24.8962L29.1753 24.8528L29.1564 24.8101L29.1369 24.7678L29.1171 24.7255L29.0968 24.6837L29.0762 24.6421L29.0551 24.6007L29.0337 24.5598L29.0119 24.5192L28.9898 24.4789L28.9672 24.4388L28.9442 24.3991L28.921 24.3598L28.8974 24.3208L28.8732 24.2819L28.8489 24.2437L28.8242 24.2056L28.7991 24.1679L28.7737 24.1305L28.7481 24.0936L28.722 24.0569L28.6956 24.0206L28.6689 23.9846L28.6418 23.9491L28.6147 23.9139L28.5869 23.8789L28.559 23.8445L28.5308 23.8103L28.5023 23.7765L28.4734 23.7431L28.4445 23.7101L28.4151 23.6775L28.3854 23.6452L28.3555 23.6132L28.3254 23.5818L28.2949 23.5507L28.2641 23.5198L28.2333 23.4896L28.2021 23.4597L28.1708 23.4301L28.1389 23.4008L28.1072 23.3721L28.075 23.3436L28.0428 23.3157L28.0102 23.2881L27.9774 23.261L27.9445 23.2342L27.9114 23.2078L27.878 23.1818L27.8445 23.1562L27.8108 23.1311L27.7769 23.1063L27.7427 23.082L27.7086 23.0581L27.6742 23.0345L27.6397 23.0114L27.6049 22.9887L27.5699 22.9664L27.5351 22.9445L27.4997 22.923L27.4645 22.902L27.4292 22.8814L27.3936 22.8612L27.3578 22.8414L27.3221 22.822L27.2863 22.8029L27.2503 22.7844L27.2143 22.7663L27.1779 22.7485L27.1418 22.7312L27.1054 22.7144L27.069 22.6979L27.0324 22.6818L26.9957 22.6661L26.9593 22.651L26.9224 22.6362L26.8855 22.6218L26.8488 22.6078L26.8119 22.5942L26.775 22.5811L26.7381 22.5684L26.7011 22.5559L26.6642 22.5441L26.6271 22.5325L26.59 22.5214L26.5531 22.5108L26.5158 22.5005L26.4789 22.4907L26.4418 22.4813L26.4047 22.4722L26.3676 22.4635L26.3306 22.4553L26.2935 22.4475L26.2565 22.44L26.2196 22.4329L26.1827 22.4263L26.1456 22.42L26.109 22.4142L26.0719 22.4088L26.0353 22.4037L25.9985 22.399L25.9618 22.3947L25.9254 22.3908L25.8888 22.3874L25.8524 22.3842L25.816 22.3815L25.7797 22.3791L25.7434 22.3771L25.7073 22.3756L25.6715 22.3744L25.6354 22.3735L25.5996 22.373L25.5638 22.3729L25.5282 22.3732L25.4927 22.3738L25.4573 22.3748L25.422 22.3762L25.387 22.3778L25.3518 22.38L25.317 22.3823L25.2823 22.3851L25.2477 22.3882L25.2133 22.3917L25.1788 22.3955L25.1447 22.3996L25.1107 22.4041L25.0769 22.4089L25.0431 22.4141L25.0096 22.4196L24.9762 22.4254L24.9432 22.4315L24.91 22.438L24.8773 22.4447L24.8445 22.4518L24.8122 22.4593Z" fill="#1DAEFF"/>
</svg>
